<svg width="320" height="64" fill="none" xmlns="http://www.w3.org/2000/svg"><path d="m64.2 17.8-.5-.5-.11-.1-.32-.32-.1-.1-.31-.32-.1-.1-.32-.32-.1-.1-.32-.32-.1-.1-.3-.3-.19-.18-.02-.03a32.7 32.7 0 0 0-8.08-6.08 134.75 134.75 0 0 1-7.27-4.26c-.87-.56-1.75-1.1-2.63-1.6C40.32 1.22 37.59 0 34.38 0c-3.45 0-6.63 1.6-9.55 3.34-.97.57-1.98 1.2-3.04 1.85l-.5.31c-1.72 1.06-3.67 2.27-5.86 3.43C5.78 14.16 0 22.96 0 32.5c0 6.87 3.02 13.2 8.04 18.09l.1.13 2.91 2.9C17.63 60.22 27.35 64 37.71 64 56.67 64 72.1 51.37 72.1 35.84c0-6.63-2.8-13.04-7.91-18.07v.03Z" fill="#000"/><path d="M63.47 32.49c0 12.63-13.02 22.87-29.07 22.87S5.32 45.12 5.32 32.5c0-7.84 4.98-14.76 12.64-18.86 7.67-4.1 12.44-8.31 16.43-8.31 4 0 7.42 3.43 16.43 8.3 7.66 4.11 12.64 11.03 12.64 18.87h.01Z" fill="#FBF0DF"/><path d="M63.47 32.49c0-1.62-.23-3.25-.66-4.8C60.54 55.34 26.8 56.67 13.53 48.4a33.19 33.19 0 0 0 20.87 6.96c16.03 0 29.07-10.26 29.07-22.87Z" fill="#EAD1C1"/><path d="M23.2 12.1c3.71-2.22 8.65-6.4 13.5-6.4a7.9 7.9 0 0 0-2.31-.38c-2.01 0-4.16 1.05-6.85 2.6-.94.55-1.91 1.16-2.95 1.8a143.83 143.83 0 0 1-6.64 3.9c-7.9 4.27-12.63 11.32-12.63 18.87v.99c5.04-17.8 14.18-19.14 17.9-21.37h-.02Z" fill="#fff"/><path fill-rule="evenodd" clip-rule="evenodd" d="M32 7.42a13.65 13.65 0 0 1-4.68 10.36c-.23.2-.05.6.26.49 2.8-1.08 6.58-4.34 4.98-10.91-.07-.38-.55-.28-.55.06H32Zm1.9 0a13.48 13.48 0 0 1 1.33 11.2c-.09.28.26.54.46.29 1.81-2.33 3.4-6.95-1.35-11.93-.24-.21-.62.12-.45.41v.03Zm2.29-.14a13.64 13.64 0 0 1 5.7 9.77c-.02.07 0 .14.04.2.05.06.1.09.17.1.07.02.15 0 .2-.04.06-.04.1-.1.11-.17.77-2.9.33-7.84-5.96-10.4-.33-.14-.54.3-.27.5v.03h.01Zm-15.34 8.64a14.19 14.19 0 0 0 8.7-7.47c.15-.3.62-.19.55.14-1.44 6.64-6.25 8.03-9.24 7.85-.31 0-.3-.43 0-.52h-.01Z" fill="#CCBEA7"/><path d="M47.04 39.07c2.68 0 4.85-1.28 4.85-2.85 0-1.58-2.17-2.86-4.85-2.86-2.68 0-4.86 1.28-4.86 2.86 0 1.57 2.18 2.85 4.86 2.85Zm-25.15 0c2.69 0 4.85-1.28 4.85-2.85 0-1.58-2.17-2.86-4.85-2.86-2.68 0-4.86 1.28-4.86 2.86 0 1.57 2.18 2.85 4.86 2.85Z" fill="#FEBBD0"/><path fill-rule="evenodd" clip-rule="evenodd" d="M24.17 35.06a4.57 4.57 0 1 0 .02-9.13 4.57 4.57 0 0 0-.02 9.13Zm20.59 0a4.56 4.56 0 0 0 .94-9.04 4.6 4.6 0 0 0-4.7 1.91 4.49 4.49 0 0 0-.8 2.53v.03a4.56 4.56 0 0 0 4.56 4.57Z" fill="#000"/><path fill-rule="evenodd" clip-rule="evenodd" d="M25.85 33.2c.94 0 1.72-.76 1.73-1.7 0-.95-.76-1.73-1.7-1.74-.95 0-1.73.76-1.74 1.71 0 .95.77 1.72 1.7 1.72v.01Zm20.57 0a1.72 1.72 0 1 0-1.71-1.73c0 .95.76 1.72 1.7 1.72h.02v.01Z" fill="#fff"/><path d="M120.94 32.14a2.73 2.73 0 0 0-2.5-1.62h-13.8V4.32a2.73 2.73 0 0 0-2.73-2.73H85.38a2.73 2.73 0 0 0-2.73 2.73v26.2h-13.8a2.73 2.73 0 0 0-2 4.57l24.78 27.27a2.71 2.71 0 0 0 4.05 0l24.8-27.28a2.72 2.72 0 0 0 .47-2.95Z" fill="#000"/><path fill-rule="evenodd" clip-rule="evenodd" d="M47.39 38.87v-.23l-.05-.1-.04-.1-.09-.08-.07-.08-.1-.03-.12-.05h-.23l-.09.05-.1.04-.08.08-.08.07c-.29.45-.6.85-.92 1.23-2.2 2.52-5.63 3.76-9.07 4.15-1.97.21-3.9.14-5.57-.13-1.34-.16-2.63-.6-3.8-1.26h-.01l-.04-.02-.1-.03s-.04-.03-.08-.03h-.26l-.09.05-.1.04-.03.02h-.01l-.05.07-.06.06v.02l-.02.03-.04.1-.02.08v.26l.05.09.04.1v.01l.02.02.08.07c.2.26.45.5.73.72 4.63 4.01 14.83 3.93 20.32-5v-.02l.04-.1.04-.1Z" fill="#000"/><path d="M74.14 34.73 91.6 53.95c.3.32.81.32 1.1 0l17.47-19.22a.8.8 0 0 0 .19-.38.8.8 0 0 0-.05-.43.73.73 0 0 0-.68-.44h-11.7V5.56a1 1 0 0 0-1.01-1H87.4a1 1 0 0 0-1.01 1v27.92H74.7a.77.77 0 0 0-.4.12.78.78 0 0 0-.28.33.73.73 0 0 0-.05.42.7.7 0 0 0 .18.39l-.01-.01Z" fill="#FBF0DF"/><path d="M97.94 5.66a18.64 18.64 0 0 0-1.85 8.1v11.9c0 2.71.63 5.4 1.85 7.82V5.66Zm6.82 31.32L90.87 52.27a.67.67 0 0 1-.57.24l1.31 1.44a.77.77 0 0 0 1.13 0l17.47-19.22a6.94 6.94 0 0 0-5.44 2.25Z" fill="#EAD1C1"/><path d="M97.94 33.48c.77.71 1.78 1.1 2.83 1.1h9.5a.7.7 0 0 0 .1-.37.71.71 0 0 0-.73-.73h-11.7Zm-22.28 1.1H86.6c.41 0 .75-.34.75-.75V6.66a1 1 0 0 1 1-1.01h9.57v-.09a1 1 0 0 0-1-1H87.4a1 1 0 0 0-1 1v27.92H74.7a.77.77 0 0 0-.42.12.78.78 0 0 0-.27.33.73.73 0 0 0-.05.42c.02.15.08.28.19.39l.93 1.02a.68.68 0 0 1-.15-.37.9.9 0 0 1 .08-.4.76.76 0 0 1 .27-.3.77.77 0 0 1 .39-.1l-.01-.01Z" fill="#fff"/><path d="M317.06 20.74a11.65 11.65 0 0 0-9.29-4.22c-1.52 0-3.02.25-4.43.77a5.4 5.4 0 0 0-1.78-.3h-3.43c-.75 0-1.48.15-2.13.44a5.36 5.36 0 0 0-2.1-.44H290a5.4 5.4 0 0 0-4.7 2.73 5.88 5.88 0 0 0-.55-.03h-3.63c-.19 0-.36.01-.55.03a5.4 5.4 0 0 0-4.7-2.73h-3.9a5.4 5.4 0 0 0-4.07 1.86 14.8 14.8 0 0 0-8.11-2.32 14.6 14.6 0 0 0-9.13 3.05v-4.13a5.4 5.4 0 0 0-5.4-5.4h-3.75a5.4 5.4 0 0 0-5.4 5.4v1.1l-.73-.01c-4.4 0-7.97 1.87-10.38 4.89-.16-.22-.32-.46-.5-.67a11.66 11.66 0 0 0-9.29-4.22c-1.52 0-3.02.25-4.43.77A5.4 5.4 0 0 0 209 17h-3.44a5.4 5.4 0 0 0-3.6 1.38 5.4 5.4 0 0 0-3.6-1.38h-3.75a5.4 5.4 0 0 0-4.36 2.2 5.4 5.4 0 0 0-4.36-2.2h-3.74a5.4 5.4 0 0 0-4.77 2.85 13 13 0 0 0-8.88-3.31l-.73.01v-1.1a5.4 5.4 0 0 0-5.4-5.4h-3.75a5.4 5.4 0 0 0-5.4 5.4v27.4a5.4 5.4 0 0 0 5.4 5.4h3.47c.6 0 1.2-.1 1.74-.29 1.44.5 3.02.76 4.67.76 4.47 0 8.1-1.95 10.5-5.06a11.5 11.5 0 0 0 9.82 5.06c1.47 0 2.93-.24 4.29-.74.53.18 1.1.27 1.7.27h3.55a5.4 5.4 0 0 0 3.6-1.38 5.4 5.4 0 0 0 3.6 1.38h3.75a5.4 5.4 0 0 0 4.48-2.38 5.4 5.4 0 0 0 4.48 2.38H222a5.4 5.4 0 0 0 4.67-2.68 13.03 13.03 0 0 0 8.71 3.15c1.65 0 3.23-.25 4.67-.76.55.2 1.13.3 1.74.3h3.47a5.4 5.4 0 0 0 4.86-3.05 14.48 14.48 0 0 0 9.68 3.5c4.25 0 8.13-1.6 10.9-4.71l.1-.12v.04a5.42 5.42 0 0 0 5.3 4.33h4.21a5.4 5.4 0 0 0 2.63-.68 5.4 5.4 0 0 0 2.63.68h4.2a5.4 5.4 0 0 0 4.19-1.98 5.37 5.37 0 0 0 4.18 1.98h3.74a5.4 5.4 0 0 0 4.48-2.38 5.41 5.41 0 0 0 4.48 2.38h3.75a5.4 5.4 0 0 0 5.4-5.4V29.7c0-3.04-.77-6.31-2.9-8.93l-.04-.03Z" fill="#000"/><path d="M296.97 20.07h3.43l.12 3.43c1.08-2.63 3.35-3.9 6.1-3.9 4.56 0 6.8 3.35 6.8 7.76v13.16h-3.75v-12.2c0-3.62-1.2-5.52-4.01-5.52-2.97 0-4.94 1.9-4.94 5.52v12.2h-3.75V20.06v.01Zm-13.38 2.7 2.7 12.34 2.55-15.05h3.9l-4.13 20.46h-4.21l-2.63-11.97-2.63 11.97h-4.2l-4.13-20.46h3.9l2.54 15.05 2.7-12.34h3.63Zm-24.95 18.22c-5.68 0-9.5-4.21-9.5-10.7 0-6.48 3.82-10.69 9.5-10.69 5.67 0 9.5 4.2 9.5 10.7 0 6.48-3.83 10.69-9.5 10.69Zm-5.56-10.7c0 4.52 2.05 7.22 5.56 7.22 3.5 0 5.55-2.7 5.55-7.22 0-4.51-2.05-7.22-5.55-7.22s-5.56 2.7-5.56 7.22Zm-8.98-17.17v27.4h-3.47l-.12-2.89c-1.11 2.13-3.2 3.36-6.29 3.36-5.75 0-8.49-4.95-8.49-10.7 0-5.75 2.74-10.69 8.5-10.69 2.93 0 4.94 1.12 6.13 3.17v-9.65h3.74ZM229.69 30.3c0 3.75 1.57 7.22 5.52 7.22 3.94 0 5.48-3.51 5.48-7.22 0-3.7-1.63-7.33-5.48-7.33-3.86 0-5.52 3.48-5.52 7.33ZM204.4 20.07h3.44l.12 3.43c1.08-2.63 3.35-3.9 6.1-3.9 4.56 0 6.8 3.35 6.8 7.76v13.16h-3.75v-12.2c0-3.62-1.2-5.52-4.02-5.52-2.96 0-4.94 1.9-4.94 5.52v12.2h-3.74V20.06v.01Zm-7.2 20.45h-3.54l-.05-3.31c-1.08 2.54-3.32 3.78-5.94 3.78-4.48 0-6.67-3.36-6.67-7.76V20.07h3.75v12.2c0 3.62 1.2 5.52 3.9 5.52 2.89 0 4.82-1.9 4.82-5.53V20.07h3.75v20.45h-.01Zm-39.73-27.4h3.75v9.66c1.2-2.05 3.2-3.17 6.14-3.17 5.75 0 8.49 4.94 8.49 10.7 0 5.74-2.74 10.68-8.5 10.68-3.08 0-5.16-1.23-6.28-3.35l-.12 2.9h-3.47V13.11Zm3.44 17.17c0 3.7 1.62 7.22 5.47 7.22 3.86 0 5.53-3.47 5.53-7.22 0-3.74-1.58-7.33-5.53-7.33-3.94 0-5.47 3.52-5.47 7.33Z" fill="#fff"/></svg>