<svg width="142" height="75" fill="none" xmlns="http://www.w3.org/2000/svg"><path d="m75.23 20.85-.59-.59-.12-.12-.37-.37-.12-.12-.37-.37-.12-.12-.37-.37-.12-.12-.37-.37-.12-.12-.36-.36-.21-.21-.03-.03a38.34 38.34 0 0 0-9.46-7.13c-2.9-1.57-5.73-3.24-8.52-4.99a80.39 80.39 0 0 0-3.09-1.88c-3.64-2.15-6.84-3.59-10.6-3.59-4.04 0-7.77 1.88-11.19 3.91-1.14.67-2.32 1.4-3.56 2.17l-.6.37c-2.01 1.24-4.29 2.65-6.86 4.02C6.77 16.58 0 26.9 0 38.06c0 8.06 3.54 15.47 9.42 21.2l.13.16 3.4 3.4c7.71 7.74 19.1 12.17 31.24 12.17 22.22 0 40.3-14.8 40.3-33 0-7.77-3.29-15.28-9.27-21.17v.02l.01.01Z" fill="#000"/><path d="M74.38 38.06c0 14.8-15.26 26.81-34.07 26.81-18.81 0-34.08-12-34.08-26.81 0-9.18 5.84-17.29 14.82-22.1 8.98-4.81 14.57-9.74 19.25-9.74s8.7 4.02 19.25 9.74c8.98 4.81 14.82 12.92 14.82 22.1h.01Z" fill="#fbf0df"/><path d="M74.38 38.06c0-1.9-.27-3.8-.77-5.63-2.66 32.42-42.21 33.98-57.75 24.28a38.9 38.9 0 0 0 24.45 8.16c18.79 0 34.07-12.03 34.07-26.81Z" fill="#ead1c1"/><path d="M27.19 14.18c4.35-2.61 10.14-7.51 15.82-7.51a9.2 9.2 0 0 0-2.71-.44c-2.36 0-4.87 1.22-8.03 3.05-1.1.64-2.24 1.35-3.45 2.09-2.26 1.4-4.87 2.99-7.78 4.57-9.27 5.02-14.8 13.28-14.8 22.12v1.16c5.9-20.85 16.61-22.43 20.96-25.04h-.01Z" fill="#fff"/><path fill-rule="evenodd" clip-rule="evenodd" d="M37.5 8.69a16 16 0 0 1-5.48 12.14c-.27.24-.06.71.3.57 3.28-1.27 7.71-5.09 5.84-12.79-.08-.44-.65-.32-.65.08h-.01Zm2.22 0a15.8 15.8 0 0 1 1.57 13.11c-.11.34.3.64.53.35 2.13-2.73 3.99-8.14-1.58-13.98-.28-.25-.72.14-.52.48v.04Zm2.69-.17a15.98 15.98 0 0 1 6.67 11.45.32.32 0 0 0 .63.11c.9-3.4.39-9.19-6.98-12.2-.39-.16-.64.37-.32.6v.04ZM24.43 18.65a16.56 16.56 0 0 0 10.2-8.76c.17-.35.73-.22.64.17-1.68 7.78-7.32 9.41-10.82 9.2-.37 0-.36-.51 0-.61h-.02Z" fill="#ccbea7"/><path d="M55.12 45.78c3.15 0 5.69-1.5 5.69-3.35s-2.55-3.35-5.69-3.35c-3.14 0-5.69 1.5-5.69 3.35s2.55 3.35 5.69 3.35Zm-29.47 0c3.15 0 5.69-1.5 5.69-3.35s-2.55-3.35-5.69-3.35c-3.14 0-5.69 1.5-5.69 3.35s2.55 3.35 5.69 3.35Z" fill="#febbd0"/><path fill-rule="evenodd" clip-rule="evenodd" d="M28.33 41.08a5.36 5.36 0 1 0 0-10.72 5.36 5.36 0 0 0 0 10.72Zm24.12 0a5.36 5.36 0 1 0-5.33-5.4v.03a5.35 5.35 0 0 0 5.33 5.36v.01Z" fill="#000"/><path fill-rule="evenodd" clip-rule="evenodd" d="M30.29 38.9c1.11 0 2.02-.89 2.03-2 0-1.11-.89-2.02-2-2.03-1.11 0-2.02.89-2.03 2 0 1.11.9 2.02 2 2.02v.01Zm24.11 0c1.11 0 2.02-.89 2.03-2 0-1.11-.89-2.02-2-2.03-1.11 0-2.02.89-2.03 2 0 1.11.89 2.01 1.99 2.02h.02l-.01.01Z" fill="#fff"/><path d="M141.73 37.65a3.2 3.2 0 0 0-2.93-1.9h-16.17V5.05a3.2 3.2 0 0 0-3.2-3.2h-19.37a3.2 3.2 0 0 0-3.2 3.2v30.7H80.69a3.2 3.2 0 0 0-2.37 5.36l29.05 31.96a3.2 3.2 0 0 0 4.74 0l29.06-31.97a3.21 3.21 0 0 0 .56-3.46v.01Z" fill="#000"/><path fill-rule="evenodd" clip-rule="evenodd" d="M55.53 45.54v-.27c0-.04-.03-.08-.05-.12l-.05-.12-.1-.09-.09-.09-.12-.04a.5.5 0 0 0-.13-.05h-.27c-.04 0-.08.03-.11.05l-.12.05-.09.09-.09.09c-.34.52-.71.99-1.08 1.44-2.59 2.95-6.6 4.41-10.63 4.86-2.31.25-4.58.17-6.53-.15a11.9 11.9 0 0 1-4.45-1.48h-.02l-.04-.02-.11-.04c-.03-.01-.06-.03-.1-.03h-.27l-.04.01a.31.31 0 0 0-.1.05l-.11.05h-.02l-.02.02-.02.01-.06.07-.07.07v.02l-.02.04-.04.11c-.01.03-.03.06-.03.1v.27l.01.04.05.1.05.11v.02l.02.02v.01l.09.08c.24.3.53.58.86.84 5.43 4.7 17.38 4.6 23.81-5.86l.01-.02.04-.12.05-.12h-.01Z" fill="#000"/><path d="m86.88 40.69 20.47 22.52c.35.38.96.38 1.3 0l20.47-22.52a.88.88 0 0 0-.65-1.47h-13.71V6.51c0-.65-.53-1.18-1.18-1.18h-11.16c-.65 0-1.18.53-1.18 1.18v32.72H87.53a.88.88 0 0 0-.65 1.47v-.01Z" fill="#fbf0df"/><path d="M114.77 6.62a21.84 21.84 0 0 0-2.17 9.5v13.93c0 3.19.74 6.33 2.17 9.18V6.62Zm8 36.71-16.28 17.91a.85.85 0 0 1-.67.28l1.54 1.69a.9.9 0 0 0 1.01.2.9.9 0 0 0 .3-.2l20.47-22.52a8.06 8.06 0 0 0-6.36 2.63l-.01.01Z" fill="#ead1c1"/><path d="M114.77 39.23c.9.83 2.1 1.28 3.32 1.28h11.13a.86.86 0 0 0 0-.86.86.86 0 0 0-.74-.42h-13.71Zm-26.11 1.28h12.84c.48 0 .87-.39.87-.87V7.79c0-.65.53-1.18 1.18-1.18h11.16l.05.01v-.11c0-.65-.53-1.18-1.18-1.18h-11.16c-.65 0-1.18.53-1.18 1.18v32.72H87.53a.88.88 0 0 0-.65 1.47l1.09 1.2a.86.86 0 0 1 .69-1.38v-.01Z" fill="#fff"/></svg>