<svg viewBox="0 0 90 50" height="48" xmlns="http://www.w3.org/2000/svg"><rect width="90" height="50" rx="9" fill="#fff"/><path d="M47.4 15.66c-.1-.12-.21-.23-.33-.34l-.35-.35-.2-.2-.08-.08-.28-.28-.2-.2-.07-.08-.2-.2-.14-.13a21.97 21.97 0 0 0-5.4-4.08 89.88 89.88 0 0 1-4.88-2.85c-.52-.34-1.15-.73-1.77-1.08-2.08-1.23-3.9-2.05-6.06-2.05-2.3 0-4.44 1.08-6.4 2.24l-2.03 1.24-.34.2c-1.15.71-2.46 1.52-3.92 2.3C8.28 13.22 4.4 19.12 4.4 25.5c0 4.6 2.02 8.84 5.38 12.12l.08.09 1.95 1.94c4.4 4.43 10.91 6.96 17.85 6.96 12.7 0 23.04-8.46 23.04-18.86 0-4.44-1.88-8.74-5.3-12.1zm-2.64 9.84c0 7.26-7.77 13.16-17.31 13.16s-17.3-5.9-17.3-13.16c0-4.24 2.73-8.25 7.32-10.73a92.49 92.49 0 0 0 4.55-2.68l.47-.29 1.46-.88c1.5-.87 2.68-1.44 3.5-1.44.78 0 1.6.32 3.14 1.24l1.18.72.95.58c1.24.78 2.8 1.75 4.71 2.76 4.6 2.47 7.33 6.48 7.33 10.72z"/><path d="M46.93 25.5c0 8.46-8.72 15.32-19.48 15.32S7.97 33.96 7.97 25.5c0-5.25 3.34-9.89 8.47-12.64s8.33-5.56 11-5.56 4.98 2.3 11.01 5.56c5.14 2.75 8.48 7.4 8.48 12.64z" fill="#fbf0df"/><path d="M46.93 25.5c0-1.09-.16-2.17-.45-3.22-1.52 18.53-24.12 19.42-33 13.88a22.2 22.2 0 0 0 13.97 4.66c10.74 0 19.48-6.87 19.48-15.32z" fill="#f6dece"/><path d="M19.95 11.85c2.5-1.5 5.8-4.3 9.05-4.3a5.25 5.25 0 0 0-1.55-.25c-1.35 0-2.78.7-4.59 1.75-.63.36-1.28.77-1.97 1.2-1.3.8-2.78 1.7-4.45 2.6-5.3 2.87-8.46 7.6-8.46 12.65v.66c3.37-11.92 9.5-12.82 11.98-14.32z" fill="#fffefc"/><path d="M25.85 8.7a9.15 9.15 0 0 1-3.13 6.95c-.16.14-.04.4.17.33 1.87-.73 4.4-2.92 3.34-7.32-.05-.25-.38-.18-.38.05zm1.26 0a9.03 9.03 0 0 1 .9 7.5c-.07.2.17.37.3.2 1.22-1.55 2.28-4.65-.9-7.99-.16-.14-.41.08-.3.28v.02zm1.54-.09a9.14 9.14 0 0 1 3.81 6.55c0 .1.06.2.16.2.1.01.18-.05.2-.14.51-1.94.22-5.25-4-6.97-.22-.1-.36.2-.18.34v.02zm-10.27 5.8a9.45 9.45 0 0 0 5.82-5.02c.1-.2.42-.12.37.1-.96 4.45-4.18 5.39-6.18 5.27-.21 0-.2-.3-.01-.35z" clip-rule="evenodd" fill="#ccbea7" fill-rule="evenodd"/><path d="M35.92 29.9c1.8 0 3.25-.85 3.25-1.9 0-1.07-1.46-1.93-3.25-1.93-1.8 0-3.26.86-3.26 1.92s1.46 1.92 3.26 1.92zm-16.85 0c1.8 0 3.26-.85 3.26-1.9 0-1.07-1.46-1.93-3.26-1.93-1.8 0-3.25.86-3.25 1.92s1.45 1.92 3.25 1.92z" fill="#febbd0"/><path d="M20.6 27.22a3.07 3.07 0 1 0-3.06-3.07c0 1.7 1.37 3.07 3.07 3.07zm13.79 0a3.06 3.06 0 1 0-3.05-3.08v.02a3.06 3.06 0 0 0 3.05 3.06z" clip-rule="evenodd" fill-rule="evenodd"/><path d="M21.7 26.18a1.15 1.15 0 0 0 .02-2.3 1.14 1.14 0 1 0-.01 2.29v.01zm13.79 0a1.15 1.15 0 1 0-1.14-1.16c0 .64.5 1.15 1.13 1.15h.01v.01z" clip-rule="evenodd" fill="#fff" fill-rule="evenodd"/><path d="M85.27 25.93a.75.75 0 0 0-.68-.45h-9.21V8.81a.75.75 0 0 0-.75-.75h-9.95a.75.75 0 0 0-.75.75v16.67h-9.2a.75.75 0 0 0-.56 1.25L69.1 43.16a.75.75 0 0 0 1.1 0l14.94-16.43c.2-.22.25-.53.13-.8z"/><path d="M35.57 29.37c.18.11.23.34.12.52-1.49 2.39-4.25 3.45-6.86 3.73-1.31.15-2.6.1-3.72-.08a7.12 7.12 0 0 1-2.7-.91.37.37 0 1 1 .42-.63c.5.33 1.34.63 2.4.8 1.05.17 2.27.21 3.52.08 2.5-.28 4.99-1.28 6.3-3.4a.38.38 0 0 1 .52-.11z" clip-rule="evenodd" fill-rule="evenodd"/><path d="M35.58 29.37c.17.12.22.35.1.52a9.85 9.85 0 0 1-7.35 4.37c-1.3.13-2.56.02-3.6-.28a4.53 4.53 0 0 1-2.4-1.44.38.38 0 0 1 .6-.45c.35.47 1.04.9 2 1.17.95.27 2.1.37 3.33.25a9.1 9.1 0 0 0 6.8-4.03.37.37 0 0 1 .52-.1z" clip-rule="evenodd" fill-rule="evenodd"/><path d="M35.57 29.37c.18.1.23.34.12.51-3.68 6-10.73 5.7-13.35 2.68a.37.37 0 1 1 .57-.5c2.25 2.6 8.7 3.05 12.15-2.57.1-.17.33-.23.51-.12z" clip-rule="evenodd" fill-rule="evenodd"/></svg>